<svg xmlns="http://www.w3.org/2000/svg" width="24" height="24" viewBox="0 0 24 24">
  <path
    d="M15.675 21.2998L6.90005 12.5248C6.81672 12.4415 6.75838 12.3581 6.72505 12.2748C6.69172 12.1915 6.67505 12.0998 6.67505 11.9998C6.67505 11.8998 6.69172 11.8081 6.72505 11.7248C6.75838 11.6415 6.81672 11.5581 6.90005 11.4748L15.675 2.6998C15.8584 2.51647 16.0917 2.4248 16.375 2.4248C16.6584 2.4248 16.8917 2.51647 17.075 2.6998C17.275 2.8998 17.375 3.1373 17.375 3.4123C17.375 3.6873 17.275 3.9248 17.075 4.1248L9.20005 11.9998L17.075 19.8748C17.2917 20.0915 17.3917 20.3331 17.375 20.5998C17.3584 20.8665 17.2584 21.0915 17.075 21.2748C16.875 21.4748 16.6375 21.5748 16.3625 21.5748C16.0875 21.5748 15.8584 21.4831 15.675 21.2998Z"
    fill="#000" />
</svg>